<svg width="312" height="54" viewBox="0 0 312 54" fill="none" xmlns="http://www.w3.org/2000/svg">
<path d="M69.7793 13.4062V39H64.5234V13.4062H69.7793ZM85.6348 13.4062V39H80.3789V13.4062H85.6348ZM93.5098 13.4062V17.5371H72.627V13.4062H93.5098ZM100.857 13.4062L105.674 22.3359L110.49 13.4062H116.52L109.084 26.0977L116.713 39H110.631L105.674 29.8945L100.717 39H94.5996L102.246 26.0977L94.793 13.4062H100.857ZM134.502 34.9395L139.6 13.4062H142.447L143.098 16.9922L137.666 39H134.607L134.502 34.9395ZM131.883 13.4062L136.102 34.9395L135.75 39H132.34L126.662 13.4062H131.883ZM147.58 34.8516L151.746 13.4062H156.967L151.307 39H147.896L147.58 34.8516ZM144.047 13.4062L149.18 35.0273L149.039 39H145.98L140.514 16.9746L141.217 13.4062H144.047ZM169.465 17.7832L162.504 39H156.896L166.406 13.4062H169.975L169.465 17.7832ZM175.248 39L168.27 17.7832L167.707 13.4062H171.311L180.873 39H175.248ZM174.932 29.4727V33.6035H161.414V29.4727H174.932ZM193.266 27.7676H186.691L186.656 24.1465H192.176C193.148 24.1465 193.945 24.0234 194.566 23.7773C195.188 23.5195 195.65 23.1504 195.955 22.6699C196.271 22.1777 196.43 21.5801 196.43 20.877C196.43 20.0801 196.277 19.4355 195.973 18.9434C195.68 18.4512 195.217 18.0938 194.584 17.8711C193.963 17.6484 193.16 17.5371 192.176 17.5371H188.52V39H183.246V13.4062H192.176C193.664 13.4062 194.994 13.5469 196.166 13.8281C197.35 14.1094 198.352 14.5371 199.172 15.1113C199.992 15.6855 200.619 16.4121 201.053 17.291C201.486 18.1582 201.703 19.1895 201.703 20.3848C201.703 21.4395 201.463 22.4121 200.982 23.3027C200.514 24.1934 199.77 24.9199 198.75 25.4824C197.742 26.0449 196.424 26.3555 194.795 26.4141L193.266 27.7676ZM193.037 39H185.25L187.307 34.8867H193.037C193.963 34.8867 194.719 34.7402 195.305 34.4473C195.891 34.1426 196.324 33.7324 196.605 33.2168C196.887 32.7012 197.027 32.1094 197.027 31.4414C197.027 30.6914 196.898 30.041 196.641 29.4902C196.395 28.9395 195.996 28.5176 195.445 28.2246C194.895 27.9199 194.168 27.7676 193.266 27.7676H188.186L188.221 24.1465H194.549L195.762 25.5703C197.32 25.5469 198.574 25.8223 199.523 26.3965C200.484 26.959 201.182 27.6914 201.615 28.5938C202.061 29.4961 202.283 30.4629 202.283 31.4941C202.283 33.1348 201.926 34.5176 201.211 35.6426C200.496 36.7559 199.447 37.5938 198.064 38.1562C196.693 38.7188 195.018 39 193.037 39ZM211.266 19.9805V39H206.186V19.9805H211.266ZM205.869 15.0234C205.869 14.2852 206.127 13.6758 206.643 13.1953C207.158 12.7148 207.85 12.4746 208.717 12.4746C209.572 12.4746 210.258 12.7148 210.773 13.1953C211.301 13.6758 211.564 14.2852 211.564 15.0234C211.564 15.7617 211.301 16.3711 210.773 16.8516C210.258 17.332 209.572 17.5723 208.717 17.5723C207.85 17.5723 207.158 17.332 206.643 16.8516C206.127 16.3711 205.869 15.7617 205.869 15.0234ZM230.584 35.0449V39H216.135V35.0449H230.584ZM230.303 22.8984L218.174 39H214.781V35.9941L226.857 19.9805H230.303V22.8984ZM228.51 19.9805V23.9531H215.062V19.9805H228.51ZM248.9 35.0449V39H234.451V35.0449H248.9ZM248.619 22.8984L236.49 39H233.098V35.9941L245.174 19.9805H248.619V22.8984ZM246.826 19.9805V23.9531H233.379V19.9805H246.826Z" fill="url(#paint0_linear_5_19413)"/>
<path d="M193.152 27.7676H186.578L186.543 24.1465H192.062C193.035 24.1465 193.832 24.0234 194.453 23.7773C195.074 23.5195 195.537 23.1504 195.842 22.6699C196.158 22.1777 196.316 21.5801 196.316 20.877C196.316 20.0801 196.164 19.4355 195.859 18.9434C195.566 18.4512 195.104 18.0938 194.471 17.8711C193.85 17.6484 193.047 17.5371 192.062 17.5371H188.406V39H183.133V13.4062H192.062C193.551 13.4062 194.881 13.5469 196.053 13.8281C197.236 14.1094 198.238 14.5371 199.059 15.1113C199.879 15.6855 200.506 16.4121 200.939 17.291C201.373 18.1582 201.59 19.1895 201.59 20.3848C201.59 21.4395 201.35 22.4121 200.869 23.3027C200.4 24.1934 199.656 24.9199 198.637 25.4824C197.629 26.0449 196.311 26.3555 194.682 26.4141L193.152 27.7676ZM192.924 39H185.137L187.193 34.8867H192.924C193.85 34.8867 194.605 34.7402 195.191 34.4473C195.777 34.1426 196.211 33.7324 196.492 33.2168C196.773 32.7012 196.914 32.1094 196.914 31.4414C196.914 30.6914 196.785 30.041 196.527 29.4902C196.281 28.9395 195.883 28.5176 195.332 28.2246C194.781 27.9199 194.055 27.7676 193.152 27.7676H188.072L188.107 24.1465H194.436L195.648 25.5703C197.207 25.5469 198.461 25.8223 199.41 26.3965C200.371 26.959 201.068 27.6914 201.502 28.5938C201.947 29.4961 202.17 30.4629 202.17 31.4941C202.17 33.1348 201.812 34.5176 201.098 35.6426C200.383 36.7559 199.334 37.5938 197.951 38.1562C196.58 38.7188 194.904 39 192.924 39ZM211.152 19.9805V39H206.072V19.9805H211.152ZM205.756 15.0234C205.756 14.2852 206.014 13.6758 206.529 13.1953C207.045 12.7148 207.736 12.4746 208.604 12.4746C209.459 12.4746 210.145 12.7148 210.66 13.1953C211.188 13.6758 211.451 14.2852 211.451 15.0234C211.451 15.7617 211.188 16.3711 210.66 16.8516C210.145 17.332 209.459 17.5723 208.604 17.5723C207.736 17.5723 207.045 17.332 206.529 16.8516C206.014 16.3711 205.756 15.7617 205.756 15.0234ZM230.471 35.0449V39H216.021V35.0449H230.471ZM230.189 22.8984L218.061 39H214.668V35.9941L226.744 19.9805H230.189V22.8984ZM228.396 19.9805V23.9531H214.949V19.9805H228.396ZM248.787 35.0449V39H234.338V35.0449H248.787ZM248.506 22.8984L236.377 39H232.984V35.9941L245.061 19.9805H248.506V22.8984ZM246.713 19.9805V23.9531H233.266V19.9805H246.713Z" fill="url(#paint1_linear_5_19413)"/>
<defs>
<linearGradient id="paint0_linear_5_19413" x1="156" y1="0" x2="156" y2="54" gradientUnits="userSpaceOnUse">
<stop stop-color="#289EDB"/>
<stop offset="1" stop-color="#1663B1"/>
</linearGradient>
<linearGradient id="paint1_linear_5_19413" x1="213.5" y1="0" x2="213.5" y2="54" gradientUnits="userSpaceOnUse">
<stop stop-color="#FEBF70"/>
<stop offset="1" stop-color="#F89726"/>
</linearGradient>
</defs>
</svg>
